<svg width="16" height="16" viewBox="0 0 16 16" fill="none" xmlns="http://www.w3.org/2000/svg">
<g clip-path="url(#clip0_69278_1608)">
<path d="M8.5978 2.03862C8.48549 1.81106 8.25373 1.66699 7.99997 1.66699C7.74621 1.66699 7.51445 1.81106 7.40215 2.03862L5.71605 5.45502L1.94582 6.00287C1.6947 6.03936 1.48607 6.21525 1.40765 6.4566C1.32923 6.69794 1.39463 6.96287 1.57634 7.14L4.30451 9.7993L3.66048 13.5543C3.61758 13.8044 3.72039 14.0572 3.92569 14.2063C4.13099 14.3555 4.40316 14.3752 4.62778 14.2571L7.99997 12.4842L11.3722 14.2571C11.5968 14.3752 11.869 14.3555 12.0743 14.2063C12.2796 14.0572 12.3824 13.8044 12.3395 13.5543L11.6954 9.7993L14.4236 7.14C14.6053 6.96287 14.6707 6.69794 14.5923 6.4566C14.5139 6.21525 14.3052 6.03936 14.0541 6.00287L10.2839 5.45502L8.5978 2.03862Z" fill="#FFA546"/>
</g>
<defs>
<clipPath id="clip0_69278_1608">
<rect width="13.3333" height="13.3333" fill="white" transform="translate(1.33301 1.3335)"/>
</clipPath>
</defs>
</svg>
