<svg width="24" height="24" viewBox="0 0 24 24" fill="none" xmlns="http://www.w3.org/2000/svg">
<mask id="path-1-inside-1_69381_1584" fill="white">
<path d="M7.7792 4.61368H6.02058C4.46656 4.61368 3.20679 5.87346 3.20679 7.42747V19.3861C3.20679 20.9402 4.46656 22.1999 6.02058 22.1999H17.9792C19.5333 22.1999 20.793 20.9402 20.793 19.3861V7.42747C20.793 5.87346 19.5333 4.61368 17.9792 4.61368H16.2206"/>
</mask>
<path d="M7.7792 4.61368H6.02058C4.46656 4.61368 3.20679 5.87346 3.20679 7.42747V19.3861C3.20679 20.9402 4.46656 22.1999 6.02058 22.1999H17.9792C19.5333 22.1999 20.793 20.9402 20.793 19.3861V7.42747C20.793 5.87346 19.5333 4.61368 17.9792 4.61368H16.2206" fill="#FF7D0C"/>
<path d="M7.7792 6.11368C8.60763 6.11368 9.2792 5.44211 9.2792 4.61368C9.2792 3.78525 8.60763 3.11368 7.7792 3.11368V4.61368V6.11368ZM16.2206 3.11368C15.3922 3.11368 14.7206 3.78525 14.7206 4.61368C14.7206 5.44211 15.3922 6.11368 16.2206 6.11368V4.61368V3.11368ZM7.7792 4.61368V3.11368H6.02058V4.61368V6.11368H7.7792V4.61368ZM6.02058 4.61368V3.11368C3.63814 3.11368 1.70679 5.04503 1.70679 7.42747H3.20679H4.70679C4.70679 6.70188 5.29499 6.11368 6.02058 6.11368V4.61368ZM3.20679 7.42747H1.70679V19.3861H3.20679H4.70679V7.42747H3.20679ZM3.20679 19.3861H1.70679C1.70679 21.7686 3.63815 23.6999 6.02058 23.6999V22.1999V20.6999C5.29498 20.6999 4.70679 20.1117 4.70679 19.3861H3.20679ZM6.02058 22.1999V23.6999H17.9792V22.1999V20.6999H6.02058V22.1999ZM17.9792 22.1999V23.6999C20.3617 23.6999 22.293 21.7686 22.293 19.3861H20.793H19.293C19.293 20.1117 18.7048 20.6999 17.9792 20.6999V22.1999ZM20.793 19.3861H22.293V7.42747H20.793H19.293V19.3861H20.793ZM20.793 7.42747H22.293C22.293 5.04504 20.3617 3.11368 17.9792 3.11368V4.61368V6.11368C18.7048 6.11368 19.293 6.70187 19.293 7.42747H20.793ZM17.9792 4.61368V3.11368H16.2206V4.61368V6.11368H17.9792V4.61368Z" fill="#FF7D0C" mask="url(#path-1-inside-1_69381_1584)"/>
<path d="M9.18616 2.54987H14.8131C15.1759 2.54987 15.4703 2.8443 15.4703 3.20709V5.31744C15.4702 5.68009 15.1758 5.97369 14.8131 5.97369H9.18616C8.82348 5.97369 8.52911 5.68008 8.52893 5.31744V3.20709C8.52893 2.8443 8.82337 2.54987 9.18616 2.54987Z" fill="#FF7D0C" stroke="#FF7D0C" stroke-width="1.5" stroke-linecap="round" stroke-linejoin="round"/>
<path fill-rule="evenodd" clip-rule="evenodd" d="M7.77893 12.3515C7.77893 11.7688 8.25135 11.2964 8.8341 11.2964H15.1651C15.7479 11.2964 16.2203 11.7688 16.2203 12.3515C16.2203 12.9343 15.7479 13.4067 15.1651 13.4067H8.8341C8.25135 13.4067 7.77893 12.9343 7.77893 12.3515Z" fill="white"/>
<path fill-rule="evenodd" clip-rule="evenodd" d="M7.77893 16.5723C7.77893 15.9896 8.25135 15.5172 8.8341 15.5172H15.1651C15.7479 15.5172 16.2203 15.9896 16.2203 16.5723C16.2203 17.1551 15.7479 17.6275 15.1651 17.6275H8.8341C8.25135 17.6275 7.77893 17.1551 7.77893 16.5723Z" fill="white"/>
</svg>
