<svg preserveAspectRatio="none" width="100%" height="100%" overflow="visible" style="display: block;" viewBox="0 0 32 44" fill="none" xmlns="http://www.w3.org/2000/svg">
<path id="Vector" d="M16.3862 0.00438736C7.37306 -0.200346 0 6.78659 0 15.4346C0 18.8817 1.17223 22.0641 3.15177 24.633L10.3848 34.2539C11.5717 35.8327 12.4053 37.6325 12.8323 39.5388L13.3736 41.9556C13.6409 43.1486 14.7347 44 15.9999 44C17.2651 44 18.3589 43.1485 18.6262 41.9556L19.1677 39.5388C19.5947 37.6325 20.4283 35.8327 21.6152 34.2539L28.8482 24.633C30.8757 22.002 32.0561 18.7276 31.9979 15.1846C31.863 6.94837 24.9229 0.198259 16.3862 0.00438736Z" fill="#FF7D0C"/>
</svg>
