<svg preserveAspectRatio="none" width="100%" height="100%" overflow="visible" style="display: block;" viewBox="0 0 65.8221 80.6251" fill="none" xmlns="http://www.w3.org/2000/svg">
<g id="Group 1707481610">
<path id="Vector" d="M25.5271 16.9473C25.6967 16.3142 25.6454 15.6325 25.3686 15.0383C21.1766 6.03783 15.6407 2.25604 10.8019 2.09089C4.16249 1.86427 1.70606 11.3761 6.93545 15.4732C10.7917 18.4946 16.6629 19.9365 23.3054 18.9778C24.3876 18.8216 25.2441 18.0034 25.5271 16.9473Z" fill="#0F6E56" stroke="#065743" stroke-width="1.875"/>
<path id="Vector_2" d="M40.2953 16.9471C40.1256 16.314 40.177 15.6323 40.4537 15.0381C44.6458 6.03766 50.1817 2.25587 55.0204 2.09072C61.6598 1.86411 64.1163 11.3759 58.8869 15.4731C55.0306 18.4944 49.1594 19.9363 42.5169 18.9776C41.4348 18.8214 40.5783 18.0033 40.2953 16.9471Z" fill="#0F6E56" stroke="#065743" stroke-width="1.875"/>
<path id="Vector_3" d="M27.9661 5.08492L30.7627 16.2714" stroke="#065743" stroke-width="3.75" stroke-linecap="round"/>
<path id="Vector_4" d="M39.1524 5.08492L36.3558 16.2714" stroke="#065743" stroke-width="3.75" stroke-linecap="round"/>
<path id="Vector_5" d="M33.7507 78.7501C50.3193 78.7501 63.7507 64.4792 63.7507 46.8751C63.7507 29.271 50.3193 15.0001 33.7507 15.0001C17.1822 15.0001 3.75075 29.271 3.75075 46.8751C3.75075 64.4792 17.1822 78.7501 33.7507 78.7501Z" fill="#FFFDF8" stroke="#065743" stroke-width="3.75"/>
<path id="Vector_6" d="M23.7701 40.4967C24.8182 40.4967 25.6675 41.3461 25.6676 42.3941C25.6676 43.4422 24.8182 44.2916 23.7701 44.2916C22.7221 44.2915 21.8727 43.4422 21.8727 42.3941C21.8727 41.3462 22.7221 40.4968 23.7701 40.4967Z" fill="#033025" stroke="#033025" stroke-width="2.35715"/>
<path id="Vector_7" d="M43.347 40.4967C44.395 40.4967 45.2444 41.3461 45.2444 42.3941C45.2444 43.4422 44.395 44.2916 43.347 44.2916C42.2989 44.2915 41.4495 43.4422 41.4495 42.3941C41.4496 41.3462 42.299 40.4968 43.347 40.4967Z" fill="#033025" stroke="#033025" stroke-width="2.35715"/>
<path id="Vector_8" d="M26.5677 53.5805C31.2288 57.6822 35.8898 57.6822 40.5509 53.5805" stroke="#033025" stroke-width="2.12143" stroke-linecap="round"/>
<path id="Vector_9" opacity="0.7" d="M18.1773 54.1401C20.0307 54.1401 21.5332 52.6376 21.5332 50.7841C21.5332 48.9307 20.0307 47.4282 18.1773 47.4282C16.3238 47.4282 14.8213 48.9307 14.8213 50.7841C14.8213 52.6376 16.3238 54.1401 18.1773 54.1401Z" fill="#F4B8A0"/>
<path id="Vector_10" opacity="0.7" d="M48.941 54.1401C50.7945 54.1401 52.297 52.6376 52.297 50.7841C52.297 48.9307 50.7945 47.4282 48.941 47.4282C47.0876 47.4282 45.5851 48.9307 45.5851 50.7841C45.5851 52.6376 47.0876 54.1401 48.941 54.1401Z" fill="#F4B8A0"/>
</g>
</svg>
