<svg preserveAspectRatio="none" width="100%" height="100%" overflow="visible" style="display: block;" viewBox="0 0 74 74" fill="none" xmlns="http://www.w3.org/2000/svg">
<g id="Group 1707481609">
<circle id="Ellipse 26483" cx="37" cy="37" r="37" fill="white"/>
<g id="information_8873670 1">
<path id="Vector" d="M37 26C37.81 26 38.4667 26.6567 38.4667 27.4667V31.5C38.4667 32.31 37.81 32.9667 37 32.9667C36.19 32.9667 35.5333 32.31 35.5333 31.5V27.4667C35.5333 26.6567 36.19 26 37 26Z" fill="#FFA546"/>
<path id="Vector_2" d="M37 37.3667C37.81 37.3667 38.4667 36.71 38.4667 35.9C38.4667 35.09 37.81 34.4333 37 34.4333C36.19 34.4333 35.5333 35.09 35.5333 35.9C35.5333 36.71 36.19 37.3667 37 37.3667Z" fill="#FFA546"/>
<path id="Vector_3" fill-rule="evenodd" clip-rule="evenodd" d="M41.0333 44.4391C46.3508 42.7346 50.2 37.7501 50.2 31.8667C50.2 24.5765 44.2901 18.6667 37 18.6667C29.7098 18.6667 23.8 24.5765 23.8 31.8667C23.8 37.7501 27.6492 42.7346 32.9667 44.4391V51.3C32.9667 53.5275 34.7725 55.3333 37 55.3333C39.2275 55.3333 41.0333 53.5275 41.0333 51.3V44.4391ZM46.1667 31.8667C46.1667 36.9293 42.0626 41.0333 37 41.0333C31.9374 41.0333 27.8333 36.9293 27.8333 31.8667C27.8333 26.8041 31.9374 22.7 37 22.7C42.0626 22.7 46.1667 26.8041 46.1667 31.8667Z" fill="#FFA546"/>
</g>
</g>
</svg>
