<svg preserveAspectRatio="none" width="100%" height="100%" overflow="visible" style="display: block;" viewBox="0 0 36.6667 23.4667" fill="none" xmlns="http://www.w3.org/2000/svg">
<g id="Group 1707481611">
<path id="Vector" fill-rule="evenodd" clip-rule="evenodd" d="M0 2.475C0 1.1081 1.1081 0 2.475 0H34.1917C35.5586 0 36.6667 1.1081 36.6667 2.475C36.6667 3.18989 36.3634 3.83401 35.8787 4.28582C35.6389 4.5096 35.6389 5.02374 35.8787 5.24751C36.3634 5.69932 36.6667 6.34344 36.6667 7.05833C36.6667 7.77322 36.3634 8.41735 35.8787 8.86915C35.6389 9.09293 35.6389 9.60707 35.8787 9.83085C36.3634 10.2827 36.6667 10.9268 36.6667 11.6417C36.6667 12.3566 36.3634 13.0007 35.8787 13.4525C35.6389 13.6763 35.6389 14.1904 35.8787 14.4142C36.3634 14.866 36.6667 15.5101 36.6667 16.225C36.6667 16.8935 36.4016 17.5001 35.9711 17.9454C35.7133 18.2119 35.7133 19.0048 35.9711 19.2712C36.4016 19.7166 36.6667 20.3232 36.6667 20.9917C36.6667 22.3586 35.5586 23.4667 34.1917 23.4667H2.475C1.1081 23.4667 0 22.3586 0 20.9917C0 20.3232 0.265027 19.7166 0.69575 19.2712C0.953407 19.0048 0.953407 18.2119 0.69575 17.9454C0.265027 17.5001 0 16.8935 0 16.225C0 15.5101 0.303087 14.866 0.78782 14.4142C1.02791 14.1904 1.02791 13.6763 0.78782 13.4525C0.303087 13.0007 0 12.3566 0 11.6417C0 10.9268 0.303087 10.2827 0.78782 9.83085C1.02791 9.60707 1.02791 9.09293 0.78782 8.86915C0.303087 8.41735 0 7.77322 0 7.05833C0 6.34344 0.303087 5.69932 0.78782 5.24751C1.02791 5.02374 1.02791 4.5096 0.78782 4.28582C0.303087 3.83401 0 3.18989 0 2.475Z" fill="#34C7A5"/>
<g id="Group">
<path id="Vector_2" d="M8.16671 5.49994C7.35671 5.49994 6.70005 6.15661 6.70005 6.96661C6.70005 7.77661 7.35671 8.43328 8.16671 8.43328H21.3334C22.1434 8.43328 22.8 7.77661 22.8 6.96661C22.8 6.15661 22.1434 5.49994 21.3334 5.49994L8.16671 5.49994Z" fill="white"/>
<path id="Vector_3" d="M30.8 12.0999C30.8 11.2899 30.1434 10.6333 29.3334 10.6333H8.06671C7.2567 10.6333 6.60004 11.2899 6.60004 12.0999C6.60004 12.91 7.2567 13.5666 8.06671 13.5666H29.3334C30.1434 13.5666 30.8 12.91 30.8 12.0999Z" fill="white"/>
<path id="Vector_4" d="M30.8 17.2333C30.8 16.4233 30.1434 15.7666 29.3334 15.7666H8.06671C7.2567 15.7666 6.60004 16.4233 6.60004 17.2333C6.60004 18.0433 7.2567 18.7 8.06671 18.7H29.3334C30.1434 18.7 30.8 18.0433 30.8 17.2333Z" fill="white"/>
</g>
</g>
</svg>
