<svg preserveAspectRatio="none" width="100%" height="100%" overflow="visible" style="display: block;" viewBox="0 0 29.4352 44" fill="none" xmlns="http://www.w3.org/2000/svg">
<g id="Group">
<path id="Vector" d="M29.4351 8.85002C29.4351 3.96223 26.4953 0 22.8689 0C19.2425 0 16.3028 3.96223 16.3028 8.85002C16.3028 13.143 18.5708 16.7216 21.5799 17.529V24.1588C21.5799 24.8707 22.157 25.4479 22.8689 25.4479C23.5808 25.4479 24.158 24.8707 24.158 24.1588V17.529C27.167 16.7216 29.4351 13.143 29.4351 8.85002Z" fill="#D8D8D8"/>
<path id="Vector_2" d="M11.9166 8.59375e-05C11.2047 8.59375e-05 10.6275 0.577242 10.6275 1.28915L10.6161 7.64741C10.6161 8.40082 10.0032 9.01364 9.24988 9.01364C8.50188 9.01364 7.8931 8.40933 7.88442 7.6633C7.88485 7.63967 7.88623 7.6163 7.88623 7.59258V1.28709C7.88623 0.57518 7.30907 0 6.59716 0C5.88526 0 5.3081 0.57518 5.3081 1.28709V7.59258C5.3081 8.34599 4.6952 8.95881 3.94187 8.95881C3.20581 8.95881 2.60537 8.37341 2.57812 7.64388V1.29181C2.57812 0.579906 2.00097 0 1.28906 0C0.577156 0 0 0.579906 0 1.29181V11.1149C0 14.3115 2.28551 16.9836 5.30819 17.5848V24.1588C5.30819 24.8707 5.88534 25.4479 6.59725 25.4479C7.30916 25.4479 7.88631 24.8707 7.88631 24.1588V17.5848C10.9088 16.9836 13.1944 14.3115 13.1944 11.1149L13.2058 1.28915C13.2057 0.577242 12.6285 8.59375e-05 11.9166 8.59375e-05Z" fill="#D8D8D8"/>
<path id="Vector_3" d="M3.59801 41.0009C3.59801 42.6572 4.9407 44 6.59706 44C8.25333 44 9.59602 42.6573 9.59602 41.0009V25.3608C9.59602 23.7046 8.25333 22.3619 6.59706 22.3619C4.94078 22.3619 3.5981 23.7046 3.5981 25.3608L3.59801 41.0009Z" fill="#37DB96"/>
<path id="Vector_4" d="M19.8699 41.0009C19.8699 42.6572 21.2126 44 22.8689 44C24.5252 44 25.8679 42.6573 25.8679 41.0009V25.3608C25.8679 23.7046 24.5252 22.3619 22.8689 22.3619C21.2126 22.3619 19.87 23.7046 19.87 25.3608V41.0009H19.8699Z" fill="#F56B50"/>
<path id="Vector_5" d="M6.60623 22.3619V43.9996C8.2582 43.9945 9.59591 42.654 9.59591 41.0008V25.3606C9.59591 23.7075 8.25829 22.3669 6.60623 22.3619Z" fill="#37DB96"/>
<path id="Vector_6" d="M22.882 22.3625V44C24.5322 43.9929 25.868 42.6533 25.868 41.0013V25.3612C25.868 23.7092 24.5322 22.3695 22.882 22.3625Z" fill="#F56B50"/>
</g>
</svg>
