<svg width="24" height="24" viewBox="0 0 24 24" fill="none" xmlns="http://www.w3.org/2000/svg">
<mask id="path-1-inside-1_69381_1660" fill="white">
<path d="M12.7167 2.00011C13.4729 2.00011 14.1579 2.42017 14.536 3.04015C14.7199 3.34004 14.843 3.70987 14.8124 4.09972C14.792 4.39972 14.8833 4.70058 15.0468 4.98058C15.568 5.83046 16.7237 6.15 17.623 5.67003C18.6345 5.09037 19.9115 5.44015 20.4941 6.42979L21.1786 7.61046C21.7713 8.60044 21.4447 9.87056 20.4228 10.4405C19.5542 10.9506 19.2473 12.0806 19.7685 12.9405C19.9319 13.2104 20.1162 13.4402 20.4023 13.5802C20.7599 13.7702 21.0362 14.0702 21.2304 14.3702C21.6083 14.9901 21.5776 15.7502 21.2099 16.42L20.4941 17.6202C20.1159 18.2601 19.411 18.6602 18.6855 18.6603C18.3279 18.6603 17.9294 18.5603 17.6025 18.3605C17.3368 18.1905 17.03 18.13 16.703 18.13C15.6913 18.13 14.8431 18.9603 14.8124 19.9503C14.8123 21.1001 13.8721 21.9999 12.6972 22.0001H11.3066C10.1213 22 9.18166 21.1001 9.18156 19.9503C9.16112 18.9603 8.31243 18.13 7.3007 18.13C6.96348 18.13 6.65675 18.1905 6.40128 18.3605C6.07434 18.5603 5.66562 18.6602 5.31827 18.6603C4.58247 18.6603 3.87707 18.2602 3.49894 17.6202L2.79386 16.42C2.41582 15.7701 2.39534 14.9902 2.77335 14.3702C2.93682 14.0703 3.24339 13.7702 3.59074 13.5802C3.87684 13.4402 4.06156 13.2105 4.23527 12.9405C4.74625 12.0805 4.43889 10.9505 3.57023 10.4405C2.55867 9.87056 2.23209 8.60038 2.81437 7.61046L3.49894 6.42979C4.09168 5.43999 5.35891 5.09023 6.38077 5.67003C7.26977 6.14997 8.42492 5.83035 8.9462 4.98058C9.10972 4.70058 9.202 4.39972 9.18156 4.09972C9.16121 3.70985 9.27358 3.34005 9.46769 3.04015C9.84583 2.42022 10.5303 2.02011 11.2763 2.00011H12.7167ZM12.0116 9.17979C10.4072 9.1798 9.10942 10.44 9.10929 12.0099C9.10929 13.5799 10.4072 14.8302 12.0116 14.8302C13.6161 14.8302 14.8837 13.5799 14.8837 12.0099C14.8836 10.44 13.616 9.17979 12.0116 9.17979Z"/>
</mask>
<path d="M12.7167 2.00011C13.4729 2.00011 14.1579 2.42017 14.536 3.04015C14.7199 3.34004 14.843 3.70987 14.8124 4.09972C14.792 4.39972 14.8833 4.70058 15.0468 4.98058C15.568 5.83046 16.7237 6.15 17.623 5.67003C18.6345 5.09037 19.9115 5.44015 20.4941 6.42979L21.1786 7.61046C21.7713 8.60044 21.4447 9.87056 20.4228 10.4405C19.5542 10.9506 19.2473 12.0806 19.7685 12.9405C19.9319 13.2104 20.1162 13.4402 20.4023 13.5802C20.7599 13.7702 21.0362 14.0702 21.2304 14.3702C21.6083 14.9901 21.5776 15.7502 21.2099 16.42L20.4941 17.6202C20.1159 18.2601 19.411 18.6602 18.6855 18.6603C18.3279 18.6603 17.9294 18.5603 17.6025 18.3605C17.3368 18.1905 17.03 18.13 16.703 18.13C15.6913 18.13 14.8431 18.9603 14.8124 19.9503C14.8123 21.1001 13.8721 21.9999 12.6972 22.0001H11.3066C10.1213 22 9.18166 21.1001 9.18156 19.9503C9.16112 18.9603 8.31243 18.13 7.3007 18.13C6.96348 18.13 6.65675 18.1905 6.40128 18.3605C6.07434 18.5603 5.66562 18.6602 5.31827 18.6603C4.58247 18.6603 3.87707 18.2602 3.49894 17.6202L2.79386 16.42C2.41582 15.7701 2.39534 14.9902 2.77335 14.3702C2.93682 14.0703 3.24339 13.7702 3.59074 13.5802C3.87684 13.4402 4.06156 13.2105 4.23527 12.9405C4.74625 12.0805 4.43889 10.9505 3.57023 10.4405C2.55867 9.87056 2.23209 8.60038 2.81437 7.61046L3.49894 6.42979C4.09168 5.43999 5.35891 5.09023 6.38077 5.67003C7.26977 6.14997 8.42492 5.83035 8.9462 4.98058C9.10972 4.70058 9.202 4.39972 9.18156 4.09972C9.16121 3.70985 9.27358 3.34005 9.46769 3.04015C9.84583 2.42022 10.5303 2.02011 11.2763 2.00011H12.7167ZM12.0116 9.17979C10.4072 9.1798 9.10942 10.44 9.10929 12.0099C9.10929 13.5799 10.4072 14.8302 12.0116 14.8302C13.6161 14.8302 14.8837 13.5799 14.8837 12.0099C14.8836 10.44 13.616 9.17979 12.0116 9.17979Z" fill="#AFB2B4"/>
<path d="M14.536 3.04015L13.2554 3.82121L13.2573 3.82424L14.536 3.04015ZM14.8124 4.09972L13.317 3.98256L13.3164 3.99016L13.3159 3.99776L14.8124 4.09972ZM15.0468 4.98058L13.7515 5.737L13.7597 5.75099L13.7681 5.7648L15.0468 4.98058ZM17.623 5.67003L18.3293 6.99334L18.3492 6.98272L18.3687 6.9715L17.623 5.67003ZM20.4941 6.42979L21.7917 5.67738L21.7867 5.66889L20.4941 6.42979ZM21.1786 7.61046L19.881 8.36286L19.8862 8.37192L19.8916 8.38091L21.1786 7.61046ZM20.4228 10.4405L19.6921 9.13052L19.6776 9.13863L19.6632 9.14706L20.4228 10.4405ZM19.7685 12.9405L21.0515 12.1634L21.0513 12.1631L19.7685 12.9405ZM20.4023 13.5802L21.106 12.2555L21.0839 12.2438L21.0615 12.2328L20.4023 13.5802ZM21.2304 14.3702L22.5111 13.5894L22.5006 13.5721L22.4896 13.5552L21.2304 14.3702ZM21.2099 16.42L22.4981 17.1884L22.5119 17.1654L22.5247 17.1419L21.2099 16.42ZM20.4941 17.6202L19.2058 16.8519L19.2027 16.8571L20.4941 17.6202ZM18.6855 18.6603V20.1603H18.6855L18.6855 18.6603ZM17.6025 18.3605L16.7941 19.624L16.807 19.6323L16.8202 19.6403L17.6025 18.3605ZM16.703 18.13L16.7032 16.63H16.703V18.13ZM14.8124 19.9503L13.3131 19.9039L13.3124 19.927L13.3124 19.9502L14.8124 19.9503ZM12.6972 22.0001V23.5001H12.6975L12.6972 22.0001ZM11.3066 22.0001L11.3064 23.5001H11.3066V22.0001ZM9.18156 19.9503L10.6816 19.9502L10.6816 19.9347L10.6812 19.9193L9.18156 19.9503ZM7.3007 18.13V16.63H7.30066L7.3007 18.13ZM6.40128 18.3605L7.18365 19.6403L7.20824 19.6252L7.23223 19.6093L6.40128 18.3605ZM5.31827 18.6603V20.1603H5.31836L5.31827 18.6603ZM3.49894 17.6202L2.2056 18.38L2.20751 18.3832L3.49894 17.6202ZM2.79386 16.42L1.49724 17.1742L1.50053 17.1798L2.79386 16.42ZM2.77335 14.3702L4.05405 15.1511L4.073 15.12L4.09042 15.0881L2.77335 14.3702ZM3.59074 13.5802L2.93152 12.2328L2.90084 12.2478L2.87087 12.2642L3.59074 13.5802ZM4.23527 12.9405L5.49667 13.7522L5.51115 13.7297L5.52482 13.7067L4.23527 12.9405ZM3.57023 10.4405L4.32968 9.147L4.31819 9.14025L4.30658 9.13371L3.57023 10.4405ZM2.81437 7.61046L4.10731 8.37098L4.11202 8.36286L2.81437 7.61046ZM3.49894 6.42979L2.21204 5.65915L2.2066 5.66823L2.20129 5.67739L3.49894 6.42979ZM6.38077 5.67003L5.64054 6.97465L5.65428 6.98245L5.66818 6.98996L6.38077 5.67003ZM8.9462 4.98058L10.2248 5.76492L10.2333 5.75105L10.2415 5.737L8.9462 4.98058ZM9.18156 4.09972L7.6836 4.1779L7.68422 4.18979L7.68503 4.20168L9.18156 4.09972ZM9.46769 3.04015L10.7269 3.85518L10.7378 3.83837L10.7483 3.82127L9.46769 3.04015ZM11.2763 2.00011V0.500107H11.2562L11.2361 0.500646L11.2763 2.00011ZM12.0116 9.17979V7.67979H12.0116L12.0116 9.17979ZM9.10929 12.0099L7.60929 12.0098V12.0099H9.10929ZM12.0116 14.8302L12.0116 16.3302H12.0116V14.8302ZM14.8837 12.0099H16.3837V12.0098L14.8837 12.0099ZM12.7167 2.00011V3.50011C12.9131 3.50011 13.1299 3.61538 13.2554 3.82121L14.536 3.04015L15.8167 2.25909C15.1859 1.22496 14.0328 0.500107 12.7167 0.500107V2.00011ZM14.536 3.04015L13.2573 3.82424C13.2847 3.86898 13.3014 3.9093 13.31 3.93985C13.3181 3.96897 13.317 3.9822 13.317 3.98256L14.8124 4.09972L16.3078 4.21687C16.3688 3.43901 16.1218 2.7568 15.8148 2.25605L14.536 3.04015ZM14.8124 4.09972L13.3159 3.99776C13.2699 4.67319 13.4798 5.27171 13.7515 5.737L15.0468 4.98058L16.3421 4.22415C16.3162 4.17979 16.3081 4.15421 16.3067 4.14911C16.3057 4.14547 16.3115 4.16485 16.3089 4.20168L14.8124 4.09972ZM15.0468 4.98058L13.7681 5.7648C14.7059 7.29379 16.7326 7.84551 18.3293 6.99334L17.623 5.67003L16.9167 4.34672C16.8291 4.39346 16.7113 4.41024 16.5846 4.37599C16.4566 4.34137 16.3696 4.2684 16.3255 4.19635L15.0468 4.98058ZM17.623 5.67003L18.3687 6.9715C18.6622 6.80333 19.0326 6.90389 19.2014 7.1907L20.4941 6.42979L21.7867 5.66889C20.7905 3.9764 18.6069 3.37742 16.8772 4.36856L17.623 5.67003ZM20.4941 6.42979L19.1964 7.18219L19.881 8.36286L21.1786 7.61046L22.4763 6.85806L21.7917 5.67739L20.4941 6.42979ZM21.1786 7.61046L19.8916 8.38091C20.0542 8.65253 19.9668 8.97731 19.6921 9.13052L20.4228 10.4405L21.1534 11.7505C22.9226 10.7638 23.4883 8.54835 22.4656 6.84001L21.1786 7.61046ZM20.4228 10.4405L19.6632 9.14706C18.1013 10.0642 17.5142 12.115 18.4857 13.718L19.7685 12.9405L21.0513 12.1631C20.9804 12.0461 21.0071 11.8369 21.1823 11.734L20.4228 10.4405ZM19.7685 12.9405L18.4855 13.7177C18.7063 14.0823 19.076 14.6012 19.743 14.9276L20.4023 13.5802L21.0615 12.2328C21.0795 12.2416 21.0964 12.2522 21.1106 12.263C21.1245 12.2735 21.1315 12.2809 21.1319 12.2812C21.1319 12.2812 21.1301 12.2793 21.1265 12.2749C21.1228 12.2705 21.1175 12.2637 21.1106 12.2541C21.0962 12.2343 21.077 12.2055 21.0515 12.1634L19.7685 12.9405ZM20.4023 13.5802L19.6986 14.9049C19.7687 14.9421 19.8718 15.0319 19.9711 15.1853L21.2304 14.3702L22.4896 13.5552C22.2006 13.1086 21.7511 12.5982 21.106 12.2555L20.4023 13.5802ZM21.2304 14.3702L19.9496 15.1511C20.0005 15.2344 20.0514 15.4133 19.895 15.6981L21.2099 16.42L22.5247 17.1419C23.1039 16.087 23.2162 14.7458 22.5111 13.5894L21.2304 14.3702ZM21.2099 16.42L19.9216 15.6517L19.2058 16.8519L20.4941 17.6202L21.7823 18.3886L22.4981 17.1884L21.2099 16.42ZM20.4941 17.6202L19.2027 16.8571C19.0924 17.0438 18.8764 17.1603 18.6854 17.1603L18.6855 18.6603L18.6855 20.1603C19.9455 20.1602 21.1395 19.4764 21.7854 18.3834L20.4941 17.6202ZM18.6855 18.6603V17.1603C18.6429 17.1603 18.5852 17.1538 18.5233 17.1371C18.4614 17.1204 18.4142 17.0986 18.3847 17.0806L17.6025 18.3605L16.8202 19.6403C17.4014 19.9955 18.0746 20.1603 18.6855 20.1603V18.6603ZM17.6025 18.3605L18.4109 17.0969C17.8267 16.7232 17.2085 16.63 16.7032 16.63L16.703 18.13L16.7029 19.63C16.776 19.63 16.8127 19.637 16.824 19.6397C16.8319 19.6416 16.8173 19.6388 16.7941 19.624L17.6025 18.3605ZM16.703 18.13V16.63C14.8834 16.63 13.369 18.1014 13.3131 19.9039L14.8124 19.9503L16.3117 19.9967C16.314 19.9215 16.349 19.8281 16.433 19.7468C16.516 19.6665 16.614 19.63 16.703 19.63V18.13ZM14.8124 19.9503L13.3124 19.9502C13.3124 20.2221 13.094 20.5 12.6969 20.5001L12.6972 22.0001L12.6975 23.5001C14.6503 23.4997 16.3122 21.978 16.3124 19.9504L14.8124 19.9503ZM12.6972 22.0001V20.5001H11.3066V22.0001V23.5001H12.6972V22.0001ZM11.3066 22.0001L11.3067 20.5001C10.8952 20.5001 10.6816 20.2181 10.6816 19.9502L9.18156 19.9503L7.68156 19.9504C7.68174 21.9821 9.34742 23.4999 11.3064 23.5001L11.3066 22.0001ZM9.18156 19.9503L10.6812 19.9193C10.6437 18.101 9.1166 16.63 7.3007 16.63V18.13V19.63C7.39026 19.63 7.48732 19.6668 7.56787 19.745C7.64907 19.8238 7.68045 19.9121 7.68188 19.9813L9.18156 19.9503ZM7.3007 18.13L7.30066 16.63C6.79772 16.63 6.16154 16.7183 5.57034 17.1116L6.40128 18.3605L7.23223 19.6093C7.21442 19.6211 7.19836 19.6292 7.18629 19.6343C7.17455 19.6393 7.169 19.6404 7.17207 19.6397C7.18038 19.6377 7.21878 19.63 7.30073 19.63L7.3007 18.13ZM6.40128 18.3605L5.61892 17.0807C5.59405 17.0959 5.54623 17.1185 5.47919 17.1364C5.41212 17.1544 5.35355 17.1603 5.31819 17.1603L5.31827 18.6603L5.31836 20.1603C5.91506 20.1602 6.59939 19.9974 7.18365 19.6403L6.40128 18.3605ZM5.31827 18.6603V17.1603C5.11251 17.1603 4.89839 17.04 4.79037 16.8572L3.49894 17.6202L2.20751 18.3832C2.85574 19.4804 4.05244 20.1603 5.31827 20.1603V18.6603ZM3.49894 17.6202L4.79227 16.8604L4.08719 15.6602L2.79386 16.42L1.50053 17.1798L2.2056 18.38L3.49894 17.6202ZM2.79386 16.42L4.09047 15.6658C3.95953 15.4407 3.99211 15.2527 4.05405 15.1511L2.77335 14.3702L1.49265 13.5893C0.798572 14.7276 0.872108 16.0995 1.49725 17.1742L2.79386 16.42ZM2.77335 14.3702L4.09042 15.0881C4.08819 15.0922 4.10643 15.0602 4.15744 15.0107C4.20637 14.9633 4.26172 14.9229 4.31061 14.8962L3.59074 13.5802L2.87087 12.2642C2.30134 12.5758 1.77292 13.0714 1.45628 13.6524L2.77335 14.3702ZM3.59074 13.5802L4.24995 14.9276C4.91219 14.6036 5.28043 14.0883 5.49667 13.7522L4.23527 12.9405L2.97387 12.1288C2.9429 12.1769 2.91952 12.2106 2.90106 12.2353C2.88293 12.2595 2.87271 12.2707 2.86974 12.2738C2.86726 12.2764 2.87228 12.2708 2.88466 12.2614C2.89753 12.2517 2.91366 12.2415 2.93152 12.2328L3.59074 13.5802ZM4.23527 12.9405L5.52482 13.7067C6.4747 12.108 5.89121 10.0638 4.32968 9.147L3.57023 10.4405L2.81078 11.7341C2.88971 11.7804 2.94685 11.8565 2.9712 11.9474C2.99518 12.0369 2.98119 12.1146 2.94572 12.1743L4.23527 12.9405ZM3.57023 10.4405L4.30658 9.13371C4.03837 8.98258 3.94347 8.64946 4.10729 8.37096L2.81437 7.61046L1.52145 6.84996C0.520707 8.5513 1.07897 10.7585 2.83387 11.7474L3.57023 10.4405ZM2.81437 7.61046L4.11202 8.36286L4.79659 7.18219L3.49894 6.42979L2.20129 5.67739L1.51672 6.85806L2.81437 7.61046ZM3.49894 6.42979L4.78584 7.20044C4.96538 6.90062 5.33634 6.80205 5.64054 6.97465L6.38077 5.67003L7.12101 4.3654C5.38148 3.3784 3.21797 3.97935 2.21204 5.65915L3.49894 6.42979ZM6.38077 5.67003L5.66818 6.98996C7.2629 7.8509 9.29015 7.28853 10.2248 5.76492L8.9462 4.98058L7.66761 4.19623C7.62306 4.26885 7.53563 4.34183 7.40874 4.37625C7.28308 4.41033 7.17157 4.39232 7.09337 4.3501L6.38077 5.67003ZM8.9462 4.98058L10.2415 5.737C10.5114 5.27484 10.7243 4.67598 10.6781 3.99776L9.18156 4.09972L7.68503 4.20168C7.68241 4.16323 7.68846 4.14303 7.68739 4.14689C7.6859 4.15226 7.67752 4.17856 7.6509 4.22415L8.9462 4.98058ZM9.18156 4.09972L10.6795 4.02153C10.6768 3.96931 10.692 3.9092 10.7269 3.85518L9.46769 3.04015L8.20844 2.22511C7.85518 2.77091 7.64562 3.45039 7.6836 4.1779L9.18156 4.09972ZM9.46769 3.04015L10.7483 3.82127C10.8602 3.63776 11.0765 3.506 11.3165 3.49957L11.2763 2.00011L11.2361 0.500646C9.98411 0.534209 8.83147 1.20268 8.18712 2.25902L9.46769 3.04015ZM11.2763 2.00011V3.50011H12.7167V2.00011V0.500107H11.2763V2.00011ZM12.0116 9.17979L12.0116 7.67979C9.6165 7.67981 7.60948 9.57434 7.60929 12.0098L9.10929 12.0099L10.6093 12.01C10.6093 11.3056 11.198 10.6798 12.0116 10.6798L12.0116 9.17979ZM9.10929 12.0099H7.60929C7.60929 14.4523 9.6234 16.3302 12.0116 16.3302L12.0116 14.8302L12.0116 13.3302C11.1909 13.3302 10.6093 12.7075 10.6093 12.0099H9.10929ZM12.0116 14.8302V16.3302C14.4207 16.3302 16.3837 14.432 16.3837 12.0099H14.8837H13.3837C13.3837 12.7278 12.8116 13.3302 12.0116 13.3302V14.8302ZM14.8837 12.0099L16.3837 12.0098C16.3835 9.59468 14.4275 7.67979 12.0116 7.67979V9.17979V10.6798C12.8046 10.6798 13.3836 11.2853 13.3837 12.01L14.8837 12.0099Z" fill="#AFB2B4" mask="url(#path-1-inside-1_69381_1660)"/>
</svg>
