<svg width="24" height="24" viewBox="0 0 24 24" fill="none" xmlns="http://www.w3.org/2000/svg">
<path d="M4.03162 15.3001H4.66931C5.4872 15.3003 6.14978 15.9636 6.14978 16.7815V19.969C6.14967 20.7869 5.48714 21.4503 4.66931 21.4505H4.03162C3.21361 21.4505 2.55028 20.787 2.55017 19.969V16.7815C2.55017 15.9635 3.21354 15.3001 4.03162 15.3001ZM11.681 11.4749H12.3187C13.1368 11.4749 13.8002 12.1383 13.8002 12.9563V19.969C13.8001 20.787 13.1367 21.4505 12.3187 21.4505H11.681C10.8632 21.4503 10.2007 20.7869 10.2006 19.969V12.9563C10.2006 12.1384 10.8631 11.4751 11.681 11.4749ZM19.3314 2.55008H19.9691C20.7871 2.55019 21.4506 3.21352 21.4506 4.03152V19.969C21.4505 20.7869 20.787 21.4504 19.9691 21.4505H19.3314C18.5134 21.4505 17.8501 20.787 17.85 19.969V4.03152C17.85 3.21345 18.5134 2.55008 19.3314 2.55008Z" fill="#AFB2B4" stroke="#AFB2B4" stroke-width="1.5"/>
</svg>
